<svg version="1.2" xmlns="http://www.w3.org/2000/svg" viewBox="0 0 241 240" width="241" height="240"><style>.a{fill:#f8be4f}.b{fill:#394d5f}.c{fill:#de7362}.d{fill:#b35353}.e{fill:#f4a17d}.f{fill:#de7361}.g{fill:#6b4c47}</style><path class="a" d="m240.8 120.2c0-66.3-53.7-120.1-120.1-120.1-66.3 0-120.1 53.8-120.1 120.1 0 37.4 17.1 70.8 43.9 92.8 12.4-29.2 41.4-49.7 74.9-49.7 34.2 0 63.6 21.3 75.6 51.3 27.9-22 45.8-56.1 45.8-94.4z"/><path class="b" d="m119.4 162.9c-33.5 0-62.5 20.6-74.9 49.7 20.7 17.1 47.3 27.3 76.2 27.3 28.1 0 53.9-9.6 74.3-25.7-12-30-41.4-51.3-75.6-51.3z"/><path class="c" d="m119 191.9c14.6 0 27.2-9.3 32.3-22.5-9.8-4.2-20.6-6.5-31.9-6.5-11.6 0-22.6 2.5-32.6 6.9 5.2 13 17.6 22.1 32.2 22.1z"/><path class="d" d="m93.1 167.3c0 0 27.6 32.4 55-3.9-20.5 3.7-55 3.9-55 3.9z"/><path class="e" d="m82.5 107.3c0 8.6-7 15.6-15.5 15.6-8.6 0-15.5-7-15.5-15.6 0-8.5 6.9-15.5 15.5-15.5 8.5 0 15.5 7 15.5 15.5z"/><path class="d" d="m75.9 107.3c0 5-4 9-8.9 9-5 0-8.9-4-8.9-9 0-4.9 3.9-8.9 8.9-8.9 4.9 0 8.9 4 8.9 8.9z"/><path class="e" d="m184.1 107.3c0 8.6-7 15.6-15.5 15.6-8.6 0-15.5-7-15.5-15.6 0-8.5 6.9-15.5 15.5-15.5 8.5 0 15.5 7 15.5 15.5z"/><path class="d" d="m177.5 107.3c0 5-4 9-8.9 9-4.9 0-8.9-4-8.9-9 0-4.9 4-8.9 8.9-8.9 4.9 0 8.9 4 8.9 8.9z"/><path class="f" d="m118.8 174.3c-28 0-50.8-22.8-50.8-50.8v-39.6c0-27.9 22.8-50.8 50.8-50.8 27.9 0 50.8 22.9 50.8 50.8v39.6c0 28-22.9 50.8-50.8 50.8z"/><path class="e" d="m118.8 167.9c-25.4 0-46.2-20.8-46.2-46.2v-42.8c0-25.4 20.8-46.2 46.2-46.2 25.4 0 46.2 20.8 46.2 46.2v42.8c0 25.4-20.8 46.2-46.2 46.2z"/><path class="f" d="m119.6 127.1c3.8 0 6.9-3.1 6.9-7h-13.9c0 3.9 3.1 7 7 7z"/><path class="g" d="m144.3 70.1h-52.1c-11.3 0-20.5-9.2-20.5-20.5 0-11.2 9.2-20.4 20.5-20.4h52.1c11.3 0 20.5 9.2 20.5 20.4 0 11.3-9.2 20.5-20.5 20.5z"/><path class="g" d="m78.1 58.6c0 0-11.9-0.9-11.9 8.8 0 9.7 1.8 24.4 1.8 24.4h5.7c0 0 15.4-26.1 4.4-33.2z"/><path class="g" d="m159.3 58.6c0 0 11.9-0.9 11.9 8.8 0 9.7-1.8 24.4-1.8 24.4h-5.7c0 0-15.3-26.1-4.4-33.2z"/><path class="g" d="m93.8 29.2c0 0-14.9 1.3-26.8-5.7-2.9-1.3-7.3 21 7.1 36.2 10.8-0.2 19.7-30.5 19.7-30.5z"/></svg>