<svg version="1.2" xmlns="http://www.w3.org/2000/svg" viewBox="0 0 366 512" width="366" height="512"><style>.a{fill:#e3ebed}</style><path fill-rule="evenodd" class="a" d="m131.1 46.7v22h-56.3v-68.2h56.3v24.1h-32.2v22.1zm80.4 0v22h-56.3v-22c0 0 15.9 0 22.3 0-10.9-10.9-14.8-14.5-22.3-22.1 0-12 0-24.1 0-24.1h56.3v24.1h-22.5zm79.8 0v22h-56.3v-22c0 0 16 0 22.3 0-10.9-10.9-14.8-14.5-22.3-22 0-12 0-24.2 0-24.2h56.3v24.2h-22.5zm74.1 54.4l-34.2 370.5-148.2 39.9-148.2-39.9-34.2-370.5zm-68.9 75.3h-229.2l5.5 44.8h116.3l-6.2 2.6-106 44.1 3.5 43.8 102.5 0.3 55 0.2-3.5 58.3-51.5 14.5v-0.1l-0.4 0.1-49.7-12.5-3-36.2h-46.4l6 69.9 93.5 27.6h0.2l93-27.1 12.1-138.8h-105.5l0.2-0.1 109.1-46.6z"/></svg>