<svg version="1.2" xmlns="http://www.w3.org/2000/svg" viewBox="0 0 362 512" width="362" height="512"><style>.a{fill:#e3ebed}</style><path fill-rule="evenodd" class="a" d="m56.7 0.5v22.8h21.1v-22.8h23v68.9h-23v-23.1h-21.1v23.1h-23v-68.9zm54.1 22.9v-22.9h63.6v22.9h-20.3v46h-23v-46zm73.6-22.9h24.1l14.7 24.2 14.8-24.2h24v68.9h-22.9v-34.1l-15.9 24.5h-0.4l-15.8-24.5v34.1h-22.6zm89.1 0h23v46.1h32.4v22.8h-55.4zm88.5 100.4l-33 369.5-148.3 41.1-147.8-41-33-369.6c0 0 362.1 0 362.1 0zm-67.7 75.6h-227l1.1 12.1 11.1 124.9h157.1l-5.3 58.8-50.5 13.7h-0.1l-50.4-13.7-3.3-36.1h-45.5l6.4 71.2 92.8 25.7h0.2l92.8-25.7 0.7-7.7 10.6-119.3 1.1-12.2h-165.1l-4.2-46.4h173.5l0.9-10.2 2-23z"/></svg>