<svg version="1.2" xmlns="http://www.w3.org/2000/svg" viewBox="0 0 24 24" width="24" height="24"><style>.a{fill:#e3ebed}</style><path fill-rule="evenodd" class="a" d="m0 0h24v24h-24zm18.3 20.1c-1.1 0-1.7-0.6-2.2-1.3l-1.8 1c0.7 1.3 2 2.3 4.1 2.3 2.1 0 3.7-1.1 3.7-3.1 0-1.9-1-2.7-3-3.6l-0.5-0.2c-1-0.4-1.4-0.7-1.4-1.4 0-0.5 0.4-0.9 1.1-0.9 0.6 0 1 0.2 1.4 0.9l1.8-1.1c-0.8-1.3-1.8-1.8-3.2-1.8-2 0-3.3 1.3-3.3 3 0 1.8 1 2.7 2.7 3.4l0.5 0.2c1.1 0.5 1.7 0.7 1.7 1.5 0 0.7-0.6 1.1-1.6 1.1zm-8.7 0c-0.8 0-1.1-0.5-1.4-1.2l-1.9 1.2c0.6 1.1 1.6 2 3.4 2 2 0 3.4-1 3.4-3.4v-7.7h-2.3v7.7c0 1.1-0.5 1.4-1.2 1.4z"/></svg>