<svg version="1.2" xmlns="http://www.w3.org/2000/svg" viewBox="0 0 16 16" width="16" height="16"><style>.a{fill:#e3ebed}</style><path fill-rule="evenodd" class="a" d="m15.2 0.1q0.2 0.1 0.4 0.2 0.2 0.2 0.3 0.5 0.1 0.2 0.1 0.4v13.4c0 0.4-0.1 0.7-0.4 1-0.2 0.2-0.5 0.4-0.9 0.4h-13.3c-0.4 0-0.7-0.2-1-0.4-0.2-0.3-0.4-0.6-0.4-1v-13.4q0-0.2 0.1-0.4 0.1-0.3 0.3-0.5 0.2-0.1 0.5-0.2 0.2-0.1 0.5-0.1h13.3q0.3 0 0.5 0.1zm-10.2 6.1h-2.3v7.1h2.3zm-0.6-1.1q0.2-0.1 0.4-0.3 0.2-0.2 0.3-0.4 0-0.2 0-0.5 0-0.2 0-0.4-0.1-0.3-0.3-0.5-0.2-0.1-0.4-0.2-0.2-0.1-0.5-0.1-0.2 0-0.5 0.1-0.2 0.1-0.4 0.2-0.2 0.2-0.3 0.4 0 0.3 0 0.5 0 0.3 0 0.5 0.1 0.2 0.3 0.4 0.2 0.2 0.4 0.3 0.2 0.1 0.5 0.1 0.2 0 0.5-0.1zm8.9 4.1c0-2.2-1.1-3.2-2.6-3.2q-0.7 0-1.2 0.3-0.6 0.4-0.9 0.9v-1h-2.3v7.2h2.3v-4.1q0-0.3 0.1-0.6 0.1-0.3 0.4-0.6 0.3-0.2 0.7-0.2c0.9 0 1.2 0.6 1.2 1.6v3.9h2.3z"/></svg>