<svg version="1.2" xmlns="http://www.w3.org/2000/svg" viewBox="0 0 30 28" width="30" height="28"><style>.a{fill:#e3ebed}</style><path fill-rule="evenodd" class="a" d="m21.1 0.6q0 0 0 0 0.8 0.1 1.4 0.4c1.7 1 2.1 4.1 1.2 8 3.8 1.1 6.3 3 6.3 5 0 2-2.5 3.9-6.3 5 0.9 3.9 0.5 7-1.2 8q-0.6 0.3-1.3 0.3 0 0-0.1 0c-2.4-0.3-4.5-1.5-6.1-3.2-1.5 1.7-3.6 2.9-6.1 3.3q0 0 0 0-0.8-0.1-1.4-0.4c-1.7-1-2.1-4.1-1.2-8-3.8-1.1-6.3-3-6.3-5 0-2 2.5-3.9 6.3-5-0.9-3.9-0.5-7 1.2-8q0.6-0.3 1.3-0.3 0.1 0 0.1 0c2.4 0.3 4.5 1.5 6.1 3.2 1.5-1.7 3.7-2.9 6.1-3.3q0 0 0 0zm-13.8 20.6c-0.3 2.3 0.1 4.2 0.9 4.6q0.3 0.2 0.7 0.2 0 0 0 0h0.1c2-0.4 3.7-1.4 5-2.9q0 0 0.1 0h-0.1q0 0 0 0 0 0 0 0c-0.8-0.9-1.7-1.9-2.5-3h-0.1c-1.4-0.2-2.7-0.4-3.8-0.7q-0.2 0.9-0.3 1.8zm15.1-1.8q0 0 0 0 0.1 0 0.2 0c0 0-0.2 0-0.2 0zm0 0c-1.2 0.3-2.5 0.5-3.9 0.7l-0.1 0.1q-1.1 1.5-2.4 2.9c1.3 1.5 3.1 2.5 5.1 2.9q0.1 0 0.1 0 0.3 0 0.6-0.2c0.8-0.5 1.2-2.3 0.9-4.6v-0.1c-0.1-0.6-0.2-1.2-0.3-1.7zm-14.4-1.3q1.2 0.3 2.5 0.5-0.5-0.7-0.9-1.5-0.4-0.7-0.8-1.4-0.5 1.2-0.8 2.4zm12.4-1q-0.4 0.8-0.9 1.5 1.4-0.2 2.6-0.5-0.4-1.2-0.9-2.5-0.4 0.8-0.8 1.5zm-15.5-6.2c-2.1 0.9-3.5 2.1-3.5 3.1 0 1 1.4 2.2 3.5 3.1h-0.1c0.6 0.2 1.1 0.4 1.8 0.6l0.1-0.2c0.4-1.2 0.8-2.5 1.3-3.5-0.5-1.1-1-2.3-1.4-3.7q-0.9 0.3-1.7 0.6zm3.2 3.3l-0.1-0.2q0 0 0 0 0 0.1 0.1 0.2zm15.2-3.7c-0.4 1.3-0.8 2.5-1.3 3.5 0.5 1.1 1 2.3 1.4 3.7q0.9-0.3 1.7-0.6c2.1-0.9 3.5-2.1 3.5-3.1 0-1-1.4-2.2-3.5-3.1q-0.8-0.3-1.7-0.6c0 0-0.1 0.2-0.1 0.2zm-1.4 3.3l0.1 0.2q0 0 0 0 0-0.1-0.1-0.2zm-1.5-2.9q0.4 0.7 0.8 1.4 0.5-1.2 0.8-2.4-1.2-0.3-2.5-0.5 0.5 0.7 0.9 1.5zm-12.5-1q0.4 1.2 0.9 2.5 0.4-0.8 0.8-1.5 0.4-0.8 0.9-1.5-1.4 0.2-2.6 0.5zm4.3-0.7q-0.7 1.1-1.4 2.4-0.7 1.2-1.3 2.4 0.6 1.3 1.3 2.5 0.7 1.2 1.4 2.3 1.4 0.1 2.8 0.1 1.4 0 2.8-0.1 0.7-1.1 1.4-2.4 0.7-1.2 1.3-2.4-0.6-1.2-1.3-2.4-0.7-1.3-1.4-2.4-1.4-0.1-2.8-0.1-1.4 0-2.8 0.1zm2.8-3.4c-0.6 0.6-1.1 1.3-1.7 2q0.8 0 1.7 0 0.9 0 1.7 0l-0.1-0.1q-0.7-1-1.6-1.9 0 0 0 0zm0 0q0 0 0 0 0 0 0 0zm-6.1-3.8q-0.4 0.1-0.7 0.2c-0.8 0.5-1.2 2.3-0.9 4.6q0.1 0.9 0.3 1.8c1.2-0.3 2.5-0.5 3.9-0.7v-0.1q1.2-1.5 2.5-2.9c-1.3-1.5-3.1-2.5-5.1-2.9q0 0 0 0zm-1.5 6.6h0.2q0 0 0 0-0.1 0-0.2 0zm13.7-6.6q0 0 0 0zm0 0c0 0-0.1 0-0.1 0-2 0.4-3.7 1.4-5 2.9 0.8 0.9 1.7 1.9 2.5 3h0.1c1.4 0.2 2.7 0.4 3.8 0.7q0.2-0.9 0.3-1.8c0.3-2.3-0.1-4.1-0.9-4.6q-0.3-0.2-0.7-0.2 0 0 0 0zm-7.7 18.3q0.7 1 1.6 1.9c0.6-0.6 1.1-1.3 1.7-2q-0.8 0.1-1.7 0.1-0.9 0-1.7-0.1zm1.7 1.9q0 0 0 0 0 0 0 0zm0-5.3c-1.6 0-2.8-1.3-2.8-2.8 0-1.6 1.2-2.8 2.8-2.8 0.7 0 1.4 0.3 1.9 0.8 0.5 0.5 0.8 1.2 0.8 2 0 1.5-1.2 2.8-2.7 2.8z"/></svg>