<svg version="1.2" xmlns="http://www.w3.org/2000/svg" viewBox="0 0 307 356" width="307" height="356"><style>.a{fill:#010101}.b{fill:#e5e7eb}.c{fill:#f0efef}.d{fill:#0a1825}.e{opacity:.3;fill:#010101}.f{opacity:.4;fill:#010101}.g{opacity:.4;fill:#e5e7eb}.h{fill:#8ac640;stroke:#010101;stroke-linejoin:round;stroke-width:1.6}</style><path class="a" d="m48.2 155.6c-10.4 4.9-37.9 26.9-43.2 33.4-5.5 6.5-7.1-3.7-1.4-20.6 4.4-13.6 15.9-32.2 35-48.1 11.2-9.1 35.8-22.4 50.9-30.1 3.1-1.6 42.6-18.3 77.8-26.7 3.1-0.8-3.6 5.1-4.7 8.4-5.3 15.4-111 81.8-111 81.8zm148.9 186.8c1.9 11 0.2 11.8-11.2 13.3-11.4 1.4-19.7-2.9-22.8-5.7-3-2.9-3.7-9.2-0.6-14.9 1.8-3.7 3.7-4.9 4.7-9.4 1-4.3 1.8-5.3 2.6-6.9 0.8-1.4 1.1-2.9 1.3-12.8 0.2-10 0-28.8 1-36.7 1-8.2 36.2 3.7 36.2 3.7 0 0-8.3 20.7-10.6 25.8-2.2 5.1-2 14.9-2 16.9 0 2.1-0.8 6.1-1.4 6.3-0.6 0.2 2 5.5 0.8 8.6-0.8 2.9 1.8 10.2 2 11.8zm13.5-311.4c-1.3-7.8 0-23 1.6-25.5 5.1-6.9 32-7.7 37.7 0.4 2.4 3.7 2.2 12.2 1.8 17.7-0.4 5.5-1.8 17.4-2 21.2-0.2 2.9-29.8 7.4-36.3-0.4-1.8-2-2.8-13.4-2.8-13.4zm59.9 291.7c12.4 8.9 22 10.5 28.3 13.8 6.3 3.3 4.7 9.6-5.9 11.4-8.6 1.6-22-1.6-31-1.6-9 0-28.9 1-34.2-2.7-6.1-4.2-3.5-12.2-3.5-12.2 1.6-4.5 5.7-14.4 4.5-22.6-1.2-8.1-2.9-12.6-5.9-20.2-3.1-7.5-5.3-26-2.5-27 2.9-1.1 2.1 0 5.8 0.8 3.6 0.8 7.7 2 15.6 2 8 0 16.7-1.2 19.8-1.8 3-0.6 5.5-1.3 4.5 5.1-1 6.3-4.1 18.1-4.3 27.3-0.2 9.1-0.2 19.7 0.4 21.5 0.6 1.9 5.1 3.9 8.4 6.2z"/><path class="b" d="m226.8 51.3c-22.4 19.3-65.8 24.6-130.1 49.5-16.5 6.3-60.5 25.2-71.1 45 35.6-20.6 48.8 7.7 51.7 36.9 2.6 27.3 16.3 41.5 51.3 40.7 36.1-0.8 47.1 20.2 57.1 44.8 19.3-94.3 50.3-112.6 70.2-128.7 42.4-34.4-9.7-95.1-29.1-88.2z"/><path class="b" d="m226.8 51.3c-53.8 18.7-106.9 23.4-169.5 61.9-14.8 9.2-46.2 29.9-52.3 69.7 22.8-25.3 75.6-57.1 140.1-77.2 32.6-10.2 56.4-16.9 85.4-28.1-2.1-13.1-2.1-18.2-3.7-26.3z"/><path fill-rule="evenodd" class="a" d="m284 152.5c-2 1.8-8.5 1.2-12.4 1-3.9-0.2-7.1 5.3-7.1 5.3 0 0-3.1 2.3-3.3 7.2-0.2 2 2.3 8.3 5.5 10.1 11.4 6.4 17.1 4.3 17.1 4.3 7.8-4.3 11.6-17.5 11.6-17.5 0.5-6.7-9.5-12.4-11.4-10.4zm-71.7-117.7c0 0-0.8 10.4-2.2 16.9-0.2 1.2-6.3 1.8-10.8 3.7 8.6 24.4 60.1 24.2 66.8 12.2-3.2-2.3-9.8-5.7-12.8-7-3.1-1.2-2.9-1-3.1-6.7-0.2-5.7-0.6-16.3-1-19.1-0.4-2.9-32-2.9-36.9 0z"/><path class="b" d="m214.4 34.8c0 0 0 5.9-0.6 11.6-0.2 2.6-0.4 4.3-0.8 6.3-0.2 1.2 6.9 6.1 8.9 16.9 9.8 21.8 32.4 11 41.8 0.6-3.3-2.2-8.6-5.3-14.7-7.7-3-1.2-1.6-3.9-1.8-9.6-0.2-5.7-1-14-1.5-17.1-0.4-3.1-26.4-3.9-31.3-1z"/><path  d="m212.3 34.8c0 0-0.2 3.6-0.8 7.9 2.7 2.7 6.1 6.3 8.8 8.6 1.8 1.6 6.3 1.4 10.4 1.4 3.6 0 6.9 0.4 8.3-0.4 3.3-1.6 8-5.7 10.6-8.8-0.2-3.6-0.4-7.1-0.6-8.7-0.2-2.9-31.8-2.9-36.7 0z"/><path class="a" d="m230.9 50.3c-2.5 0-5.3-0.2-7.6-0.7-1-0.2-2-0.8-2.8-1.2-1.4-1-2.9-2.2-4.5-3.4-3.2-2.5-3.5-3.9-3.5-4.5 1.5-12.8-0.4-23.6-0.4-23.6 0 0-1.4-5.5 6.4-7 7.7-1.4 12.4-1.6 12.4-1.6 0 0 4.9 0 12.4 1.6 7.7 1.5 6.3 7 6.3 7 0 0-1.8 10.8-0.4 23.6 0 0.6-0.2 2-3.5 4.5-2.8 2-5 4.2-7.3 4.6-2.2 0.5-5.1 0.7-7.5 0.7z"/><path fill-rule="evenodd" class="a" d="m230.9 3c-13.5 0-16.1 3.7-20 7.7-0.8 1.1-0.2 7.2 1.2 20.2h1.9c0 0-1.2-3.7-1-7.9 0.2-4.3 1-4.1 0.4-5.1-0.9-1.2-2.5-3.3 1.2-5.3 3.7-2.1 9.4 1.6 16.3 1.8 6.9-0.2 12.8-3.9 16.5-1.8 3.6 2 2 4.1 1.2 5.3-0.8 1.2 0.2 0.8 0.4 5.1 0.2 4.2-1 7.9-1 7.9h1.8c1.2-13 2.1-18.7 1.4-19.7-3.4-4.5-6.9-8-20.3-8.2zm50.3 148.5c-2 1.8-5.7 1-9.6 0.8-3.9-0.2-7.7 5.5-7.7 5.5 0 0-1.7 2.2-2.5 5.3-0.4 2 8.6 3.9 9.6 4.9 0.4 0.4 2 0.6 2.4 1 0.7 0.6 0.9 1.6 1.7 2.5 0.8 0.6 1.4 0 2.2 0.8 1 0.8 0.8 1.8 1.4 2.4 0.7 0.6 2.1 1 2.5 1.6 1.4 1.9 1.2 3.1 2.8 3.9 7.6-4.3 11.4-16.7 11.4-16.7 0.7-6.5-12-14-14.2-12z"/><path class="a" d="m269 73.5c0 0 12.8-3.1 21.6 5.3 8.7 8.5 8.1 19.1 5.5 25.6 2.2 2.7 6.3 10 3.2 18.8 13.5 11.4 7.6 28.9-4.5 40.5 0 0-2.8-10.6-14.2-11.2 0.4-4.1-10.6-7.3-5.5-17.9-7.8-1.8-7.6-7.1-8.8-13.7-1-6.5 2.7-47.4 2.7-47.4z"/><path class="c" d="m264.3 79.2c0 0 14.9-7.6 23.6 1 8.8 8.6 6.3 17.9 3.7 24.4 2.2 2.7 7.5 10.2 4.3 19.2-0.7 2-5.1 2-8.4 7.3 8.1-4.7 13.2-3.4 15.1 2.5 2.8 9.1-3.5 20.1-9 26.2 0-0.2-0.2-0.4-0.2-0.6-0.8 3.1-1.8 9-7.9 15.5-3.1 3.3-5.5 2.9-9 2-4.1-1-5.5-2.8-11.2-5.9-3.3-1.8-1.4-4-1.4-5.9 0-0.4 0.4-1 1-1.8 0.4-1 1.6-2.6 3.5-4.5 0 0 2.6-3.6 6.5-3.4 3.8 0.2 7.9-0.7 8.9-1.7 0-7.1-8.1-7.3-5.3-19.5 0.2-0.6 1.3-1.7 4.5-2.1-4.9-1-7.1-1.2-10.6-4.4-2.4-2.3-4.2-5.1-4.9-8.8-1.2-6.3-3.2-39.5-3.2-39.5z"/><path class="a" d="m221.3 66.4c-1.2-1.7-7.5-9.8-19.5-13.1-3.5-1-5.8 1.8-9.2 3.9-1-0.6-5.5-2.7-8-1.2-2.4 1.4-4 2.8-6.5 3.8-1.2-0.6-4.5-0.6-7.1 0.4-2.7 0.9-6.7 2.7-10.6 8-2.4 8.7 43.2 2.2 43.2 2.2z"/><path class="b" d="m221.7 66.4c-6.5-2.3-5.5-9.8-19.9-11-2.9-0.3-4.7 2-6.8 3.4 1 1 2.1 2.7 2.7 4.3-1.9-2-5.1-4.7-8.4-5.3-3-0.6-5.1 1.6-8.3 3.3 0.6 0.6 1.2 1.6 2 2.8-2.8-1.8-4.9-2.4-8.7-1-2.7 0.8-7.8 3-11.7 8.5-2.4 8.8 41.2-1 41.2-1z"/><path class="a" d="m260 69.6c0 0 0-2.2-0.2-4.3 0-0.4-1.6-1.4-1.6-1.8l-0.4-0.4c0 0 3.2-1.8 5.7-0.8 2.6 0.8 4 4.3 4 4.3 4.7-1.7 5.1 0.2 7.4 2.6 4.9-1 5.5 0.8 8.5 5.3 0 0-3.6-0.6-10.8 0.6-6.9 1-12.6-5.7-12.6-5.5z"/><path class="b" d="m259.2 68.6c0 0 1.2-1 0.8-1.2 2.2-1.3 5.3-2.7 6.7 1.2 4.7-1.6 5.3 0.6 7.6 3 5.7-2.6 6.1 0.7 6.5 2.1-1.9 0-4.5 0.2-8.2 0.6-6.9 1-13.6-5.9-13.4-5.7z"/><path class="a" d="m189.9 63.5c0 0 11.6 4.1 21.4 3.5 9.8-0.9 26.5-1.7 35.5 3.6 0 0 9.1-3.2 17.7-1 8.5 2.3 24.2 16.9 19.5 32.4-0.4 1-3 2.6-6.1 3.7 0 0 1.7 6.9-1.2 12.6-2.8 5.5-9.2 16.1-9.4 30.7-0.2 2.5-0.6 7.6-1 10-15.9-0.6-40.3-6.5-64.3-6.1 0.2-2.6 0.4-4.3 0.6-6.9h0.6c-1.2-6.7-1.7-10.2-2.9-15.3-7.7-4.9-15.9-10.6-22.8-21.4-6.7-10.8 12.4-45.8 12.4-45.8zm78.7 110c0 0 12.6 45.2-2.3 64.2 0 0 2.3 8.7-2.8 18.1-0.8 4.1-1.9 7.7-2.5 11.8-2.6 16.9-7.1 24-8.3 51.1l-12.2-0.2c0 0-1.5-19.5-5.8-29.9-2.4-5.9-12-13.9-11.6-21.8 0.4-6.1 1.7-11.2 12.1-19.4 0.8-11.8-11-23-9.2-67z"/><path class="b" d="m264.9 171.7c3.3 20.7 10.8 51.5-2.9 66.6q0.3 1.4 0.5 2.8 0.2 1.5 0.2 3 0 1.4-0.1 2.9-0.1 1.4-0.4 2.9c-0.4 2.4-1.2 5.1-2.2 7.9-2 4.9-2.8 12-3.5 16.3-2.6 16.9-2.6 17.7-3.8 44.8l-12.2-0.2c0 0-1.5-19.5-5.8-29.9-2.4-5.9-7.5-11-7.9-19-0.4-6.1 3.9-18.3 14.1-17.9-0.7-24.6-12.1-19.7-15.1-71.1zm-75-108.1c0 0 4.5 1.4 9.4 1.8 4.9 0.4 10.2 0 14.9-0.2 9.7-0.8 23.6-1.8 32.8 3.5 0 0 5.1-1.7 10.6-1.3 2.4 0.2 4.8 2.3 7.7 3.1 9 2.2 17.5 17.1 13.6 30.5-0.4 1.1-3.2 0-6.5 1.1 0.6 2.8 1 9.3-2.2 16.3-3.5 6.9-8 15.8-7.1 33-21.4-1.1-31-2.5-52.2-3.5-1.8-7.5-3-15.1-3.3-18.9 2.9-1.5 4.5-2.7 6.8-5.1-6.1 1-8.6 0.6-12.3-1.5-3.6-2-10.1-8.5-13.4-12.8-0.4-0.4-2.6 6.3-7.7 6.5-1.9-2.6 5.9-10.2 4.4-13-5-10.4 4.5-39.5 4.5-39.5z"/><path class="a" d="m266.5 154.8c0 0 0.4 7.3 0.4 9.1 0 2.1 1.7 8.2 1.9 11-2.3 3.9-12.1 12.6-29.8 15.9-17.5 3.7-40.7-23.8-40.7-23.8 0.6-2.7 2.6-10.4 4.1-14.5 0.2-0.4 0.6-1.4 0.6-1.8 1.8-2.7 63.5 4.1 63.5 4.1z"/><path class="b" d="m262 155.4c0 5.1 0.9 8.7 1.5 12 1 5.9 2.6 9.8 2.6 13.6 0 11.8-15.5 9.8-28.5 10.2-17.5 3.7-32.4-23.8-32.4-23.8 1.2-4.7 2.1-10 3.9-14.5 0.2-2.4 0.6-5.5 0.8-6.9 24.8 0 42.4 1.4 52.5 2.4 0.5 2.3 0.1 6.1-0.4 7z"/><path class="a" d="m242.5 181.6c0 0-10.8-24-43.2-16.9-7.7 21.8-18.1 46.9-11.4 74-6.7 9.1-14.5 14.2-14.5 31.1 0 16.9 0.9 19.8 0.9 19.8l23.8 1.2c0 0 7.7-10 10.8-20.8 0.8-3 1.6-8.5 1-14.8 0.8-1.3 4.3-4.1 4.7-9.6 0 0 11.6-6.1 18.3-21 6.3-13.4 4.7-25 9.6-43z"/><path class="b" d="m242.5 181.6c-0.6-2.2-8.8-24.2-38.9-17.7-17.7 47.3-11.2 66.8-8.6 75.4-12 15.3-17.5 18.5-15 49.5h15.8c7.4-11.6 9-15.9 9.4-31.2 0-0.6-2.2 1.2-3.9 3.3 1.3-6.3 4.7-7.6 7.4-11.4 1.2-1.7 2.2-4.1 2.2-7.4 14.3-9.5 19.6-21.6 22.6-34 2.5-8.5 5.3-22.6 9-26.5z"/><path fill-rule="evenodd" class="a" d="m192.2 148.8c0 0 5.5 0.2 10.4 1.9 4.7 1.6 4.7 2.6 6.5 4.7 1.8 2 6.3 5.1 5.5 8.1-0.4 1.6-1.4 2-2.9 3.5-0.6 0.6-5.1 5.5-6.1 6.1-0.6 0.4-1.4 1-2 1.4l-3.1 2c-2 1.1-3.4 1.7-5.7 1.5 0 0-5.1-0.2-8.3-3.7 0 0-0.4-1.6 0.4-2.4 0 0-4.3-3.7-5.5-6.1-1.2-2.5-1.2-6-0.4-7.8 0.4-1.8 8.3-6.9 11.2-9.2zm5.1 198.2l-0.6 5.1c0 0-1.9 2.3-15.5 2.1-13.9-0.2-17.5-4.5-18.8-6.8l-0.8-5.3c0 0 2.7-3.8 3.3-3.8 4.5 0.4 19.7 6.5 30.3 8.1 1.1 0 1.3 0.4 2.1 0.6zm31.7-10.8l67.9 5.5 1.8 0.2-0.2 3.7c-19.1 3.3-34.8-2.2-51.7-1.8-11.6 0.2-17.8-0.8-20.2-2.7 0-2.2 0.2-2.2 0.2-4.5z"/><path fill-rule="evenodd" class="a" d="m234.1 335.6l57.9 4.9c0.6 4.3-6.7 5.7-12.6 5.9-11.2-0.6-21.6-3-32.6-2.6h-5.1c-8.4-1-11-4.3-7.6-8.2zm-58.8-77.6c1.8 1.2 14.2 8.6 34.4 7.6-0.4 3.8-0.2 11.4-9.2 24.6-4.5 6.5-8.3 17.9-9.1 32.4 0.2 3.2 2 6.1-0.4 10.4 0.8 2.6 4 7.9 5.7 11.2 1.6 3.2 2.4 6.9-8.4 7.1-11 0.2-28.7-1-26.3-9.6 1.3-4.4 4.7-9.1 5.1-11 0.4-1.8 0.4-7.3 3.9-11 3.1-10.1 2-19.9 1.4-29.1-1-9.6-1.2-24.8 2.9-32.6zm2-139.1c5.3 8.2 2.5 14.3 15.7 29.9-1.6 3.9-7.1 9.8-12.4 11.2-15.7-13.2-38.9-14.8-46.5-32.3-2.2-5.1-5.5-12.3-2.4-15.7 4.7-4.9 6.1-6.7 8.7-16.5 3.5-12.7 10.4-13.1 13.5-13.5 0.6-11.8 10-18.3 19.3-20.1 23.3-4.7 35.5 10.8 21 30.1 1.8 16.9-11.2 24.9-16.9 26.9z"/><path class="b" d="m191.4 90.8c0.8-1.2 2.2-3.9 2.8-4.9 0.2-0.2 2.5 3.7 2.7 3.5 5.5-9 6.9-22 0.6-23.3-1.5-0.2-4.1-0.8-6.3-1.6-4.1-1.4-7.8-1.4-14.3-0.2-9 1.6-17.9 8.2-17.9 17.5 0 0.6 6.3 2.5 8.1 10-3-4.3-8.3-9-14.6-4.9-6.8 4.3-3.3 14.1-12.3 24.3-3 3.4-2.6 7.5 0.6 15.6 5.3 12.9 30.4 19.8 44 32 3.3-1.4 5.5-4.7 7.2-7.1-9.2-9.6-12.9-18.5-15.5-25.1-3.3-7.5-6.9-11.8-14.1-17.5 3.7 1.4 6.6 2.9 8.2 4.1 1.8 1.2 4.5 1.4 6.9 0.6 8.8-3 13.5-15.3 13.9-23z"/><path class="a" d="m280 94.1c-0.6 7.7-6.3 3.8-9.4 2.4-6.1-2.7-12.2-4.5-19.4-4.5-7.1 0-16.2 0.6-24.2 2.7-11 3-14.2 2.8-19.1 0.4-4.9-2.7-13.5-9.2-13.5-9.2 0 0-0.2 2 1.9 4.7 2.6 3.2 8.5 7.3 16.5 10 3.8 1.2 6.9 0.4 10.3-0.4 18.2-4.5 37.3-5.3 53.4 4.4 0.8 0.5 3.7-0.8 4.9-2.6 1.6-2.7-1.4-7.9-1.4-7.9z"/><path class="d" d="m187.3 171.7c1.6 1 3.7 1.6 5.9 3.4 0 0-1.8 0-2.7-0.8-1-0.6-3-2.4-3.2-2.6z"/><path class="b" d="m246.2 10.1c-0.7-1.8-5.1-5.1-15.5-5.1-11.2 0-14.5 3.5-14.7 5.3 0 0.6-0.8 7.2-1 9.8 0 0 0 3.3 0.2 8.2 0.2 3.2 1 5.1 1.4 9.3 0.4 4.5 1.7 7.4 3.9 11 1 0.6 1.8 1.3 2.8 1.5 4.1 0.8 11.2 1 15.1 0 2.3-0.7 5.1-4.5 5.7-8 0.8-4.3 1.6-7.3 1.9-10 0.4-2.6 0.6-8.5 0.8-10.2 0.6-4.4-0.4-11.4-0.6-11.8z"/><path class="a" d="m224.8 261.9c0 0 10.8 4.7 37.4 0.6 0 0-7.5 37.9-4 56.8 0 0 3.4 4.9 29.1 14.3 0 0 11.4 2.8 11 8.5 0 0 0.4 1.3-13.4 0.9-13.9-0.4-26.9-2.9-36.1-2.9-9.2 0-18.9 0.4-20.6-2.2-1.8-2.5 0.4-8.8 3.1-12.5 2.8-3.8 2-6.7 1.8-13.6-0.6-18.1-14.4-36.9-8.3-49.9z"/><path class="b" d="m222.5 265.4c-1.4 2 0.2 9.7 2.3 17.3 2 7.5 6.5 12 7.5 24.4 1 12.2 1.2 13.9-2.2 21-3.5 7.1-4.5 13.6 7.5 13.8 12 0.2 18.5-0.2 30.8 1.7 12.2 1.8 16.5 2.4 23.2 1.4 6.7-1 8.1-3.3 5.3-5.3-2.9-2-14.7-4.3-19.8-8.4-4.9-3.6-18.7-9.7-18.9-11.4-0.6-5.5-0.8-25.4 0.2-31.9 1-6.6 2.4-15.9 2.8-18.4 0.4-2.4 2.5-4.9-1-4-3.5 0.8-16.5 2.6-26.3 2-9.7-0.6-10.8-2.9-11.4-2.2z"/><path class="e" d="m229.5 328.3c3.4 1.6 8.5 2.8 12.4 2.8 0 0-1.4 6.8 0.8 10.8 2.2 4.1-16.3 1.7-16.3 1.7l-0.8-14.5zm54 17.5c3.2-1 5.5-4.7 2.8-8.1-2.8-3.5-5.3-4.1-1.6-4.3 3.6-0.2 17.1 7.9 17.1 7.9l-6.9 6.4zm-61.5-72.6c4.6 1.7 11.8 2.1 17.9 1.9 6.1-0.2 15.3-1 21.2-3.1 5.9-2 3.4 2.3 3.4 2.3l-3.2 3c0 0-7.8 3.1-20.4 2.9-14.9-0.2-19.4-1.9-19.4-1.9zm0.5 10.2c4.6 1.7 11.8 2.1 17.9 1.9 6.1-0.2 14.2-0.2 20.1-2.5 2.5-0.8 1.1 2.7 1.1 2.7l-1.1 1.8c0 0-7.9 2.8-20.3 2.6-14.9-0.2-17.5-1.4-17.5-1.4z"/><path class="a" d="m208.9 140.7c0 1.4 15.9 9.4 24.6 11 8.8 1.6 27.1 0 30-0.6l-0.4 2.8c0 0-21.8 3.3-38.5-1.2-16.7-4.5-14.9-5.5-14.9-5.5z"/><path class="b" d="m174.9 314.4c2.4 1.3 11.2 3.5 16.9 2.3 0.8-0.2 0-14.1 2.2-20.4 3.3-8.7 8.6-15.9 11-31.4-8.5-0.8-18.3-3-23.4-4.6-6.5 19.9-4.3 37-6.7 54.1zm13.6 12.9c1.4 0.4 2.5 2 2.9 1 0.8-1.8-1.5-5.3-1.7-7.7v-0.2c-1.8-1.7-14.2-1.9-13.4-1.1-1.4 2.7-3.7 2.3-4.5 7.6-0.4 2.6 2.9 0.4 5.9 0.2-5.5 3.6-11.8 8.3-12.8 12.4-1.2 5.7 0.8 7.3 6.9 10.4 5.3 1.2 11.6 1.4 16.5 1.2 5.5-1 6.5-3.7 4.9-7.3-2.4-5.5-4.1-12.7-4.7-16.5z"/><path class="a" d="m190.8 62.7c6.7 3.9 16 2.8 19.5 2.6 0.8 0 9-1.4 9.4-1.2 0.8 0.2 0.8 0.8 0.8 0.8 0 0-3.1 1.7-10 2.1-6.5 0.4-14.2 0-18.5-2.1-5.1-2.2-1.2-2.2-1.2-2.2zm69.2 3.9c1.2 0.8 9.2 3.8 12.6 7.5 3.1 3.3 1.5 3 0.8 2.2-0.8-1-7.1-5.3-9.5-6.3-2.5-1-5.5-2.8-5.5-3.2 0-0.4 1.6-0.2 1.6-0.2z"/><path class="c" d="m189.7 151.1c5.9-0.4 12.1 1 15.9 5.1 2.1 2 5.3 4.3 4.9 6.3 0 0.6-1.2 2.2-2.2 3.5-0.6 0.8-2.5 2.6-3.1 3.2-0.8 0.6-3.7 2.9-4.3 3.3-0.6 0.4-1.4 1.4-2 1.6-2 1-4.3 0.2-6.3-0.8-2-1 0.4-1.2-1.8-2.9-5.5-3.8-8.6-6.5-6.4-14 0.2-1.4 2.5-3.1 5.3-5.3z"/><path class="f" d="m137.8 104.4c-18.3 7.4-65 30.6-78.2 37.7 11 6.9 16.1 23.7 17.7 40.6 0.2 1.6 0.4 3 0.6 4.6q0.3 2.2 0.6 3.1c0 0.2 0 0.6 0.2 0.8 12-32.8 55-67.4 56.6-70.1 0.9-1.2-1-6.5 1.9-11.6 3.6-6.5 10.8-9.3 0.6-5.1zm43.6 153.8c9.4-18.7 9.6-36.6 9.4-57.6 0-8.8 6.3-21.2 3-17.7-12.2 13.6-43 39.3-65.2 40.7 31.2-1 43.4 14.7 52.8 34.6z"/><path class="a" d="m41.7 159.4c11.6-8.3 71.7-40.3 86.1-44.8 14.5-4.7 10-10.2 10-10.2 0 0-58.7 25.3-93.7 47.1"/><path fill-rule="evenodd" class="g" d="m212.8 100.6c-4.7-1.9-8.4 3.6-7.2 8.9 1.2 5.3 12.2 11.2 11.6 30.6-0.4 15.9-3.8 22.4-3.8 22.4l-7.8-9.8c0 0-1.2-22-3.8-25.2-2.7-3.3-11-9.2-14.3-12.3-3.3-3 3.7-7.1 3.3-12.8-0.5-5.5 3.4-16.5 3.4-16.5zm28.3 86.8c-0.4 15.3 3.1 37.9 4.5 48.7 1.4 10.8 3.3 11.6 0 16.5-3.2 4.6-7.5 12.4-7.5 12.4l-14.1-1.2c0 0 11.2-14.3 11.8-16.9 0.6-2.7-5.7-22.9-5.7-22.9zm-22.4-142.3l1.9 4.6 15.6 2.9 11.6-9.4c0 0 1.5 7.2-0.8 9.8-5.1 5.7-17.9 4.1-21.1 2.9-5.5-1.9-9-4.7-11.9-11z"/><path class="h" d="m215.2 58.8c5.3 3.5 18.5 6.7 22.2 7.3 3.7 0.9 9.6-3.8 12.4-5 3.1-1.5 8.4-2.3 14.5 3.2 0.6 0.6-1.4 3.3-1.4 3.3-0.2-0.2-1.5-0.2-3.1-1-1.6-0.9-3.1-1.5-5.5-1.3-10.2 1.3-11.8 4.7-20.8 2.7-8.9-2.1-11.2-3.7-19.9-3.3"/><path class="b" d="m213.4 59.4c6.7 2.9 19.7 5.9 23.4 6.7 3.7 0.9 9.6-2.8 12.4-4.6 5.1-3.3 11.6-0.6 14.7 2.8 2 2.3 2.8 3.7 2.8 4.3 0 0.8-2.4 0-2.4 0-1.4-0.6-3.1-0.8-4.3-1.6-1.6-0.9-3.3-2.1-5.7-1.9-10.2 1.3-12.2 4.7-21 2.7-8.7-2.1-11-3.9-20.3-3.3"/><path class="a" d="m181.8 249.7c-0.4-0.4 0.4-0.8 0-0.8-2.7 0-6.3-2.1-8.4-4.9-8.7-12.7-21.6-21-44.8-20.4-34.8 0.8-48.7-13.4-51.3-40.7-1.4-14.9-5.5-29.4-13.9-37.5l-4.8 3c9.3 8.2 12.4 21.4 14.4 39.6 3.3 27.2 25.3 39.9 50.9 40.3 26.7 0.4 36.3 5.9 46.3 19.3 3.2 4.3 6.9 5.7 9.8 6.3z"/><path class="g" d="m276.3 118.7c0.6 3.1 2.2 9 5.5 11.8 1.4 1.4 1.6 1.8 0.4 1.8-1.2 0-10.2-0.4-10.2-0.4l-2.4-4.2z"/></svg>